<svg width="888" height="433"><g><path d="M347.341,348.154L347.171,346.002L346.63,344.833L347.026,343.982L346.568,342.275L345.937,341.536L345.962,339.095L343.865,338.81L344.13,336.058L343.416,334.65L344.068,333.6L344.001,332.522L342.871,331.196L343.228,330.399L342.832,328.655L341.545,326.032L341.676,324.723L340.617,322.248L340.438,320.141L341.096,318.154L340.813,316.242L341.863,314.631L341.842,310.528L341.121,309.384L341.614,306.612L342.556,305.038L342.827,303.105L341.817,301.436L343.426,298.817L343.313,295.653L342.707,294.69L343.076,292.608L341.734,291.716L340.456,290.039L339.125,287.349L337.645,286.354L338.096,285.003L339.003,285.883L339.963,285.751L339.89,284.077L340.689,283.065L340.06,282.363L339.066,283.396L338.824,282.71L339.567,281.351L338.64,280.645L337.33,280.525L338.115,279.992L338.978,278.311L339.155,276.931L338.324,276.551L338.976,275.882L339.241,274.518L338.686,273.845L336.757,273.349L336.669,272.746L338.057,272.461L338.499,271.606L339.227,267.343L338.235,265.5L336.727,264.253L337.049,263.484L338.621,263.654L340.127,264.525L340.61,263.84L339.218,263.344L339.319,262.22L341.149,261.96L343.172,258.965L345.131,257.279L345.382,255.317L347.73,252.917L351.276,247.861L351.835,246.167L353.327,245.828L352.726,243.771L353.534,243.238L353.591,241.656L350.751,240.958L350.125,239.384L351.105,235.744L356.241,234.902L356.95,233.538L357.012,231.378L357.636,230.263L357.627,229.044L358.891,227.185L357.689,225.409L357.233,222.269L358.805,221.517L358.955,220.695L357.855,219.501L355.928,218.927L354.204,217.861L354.04,216.969L354.738,216.296L356.545,215.796L356.81,214.527L355.751,213.499L352.813,212.177L351.773,210.971L351.234,208.822L348.934,205.047L347.912,203.002L345.771,202.081L344.439,201.097L344.208,199.652L344.68,198.863L343.677,197.198L343.32,195.438L343.711,193.893L343.345,191.456L344.369,189.679L343.808,188.142L343.663,185.598L344.515,183.871L346.333,183.871L346.812,183.396L346.851,181.492L347.355,178.013L348.619,177.274L350.61,177.505L352.189,176.902L353.941,174.221L356.524,173.126L356.982,171.032L357.972,168.293L358.992,167.442L360.488,167.715L361.319,168.355L363.099,167.425L362.928,163.596L364.871,162.856L364.966,160.002L365.521,158.721L364.287,158.3L363.446,155.677L364.275,153.578L365.325,152.479L365.281,150.422L366.867,148.708L367.915,146.923L367.452,145.494L368.663,144.746L369.584,142.201L370.306,141.078L369.558,139.277L370.424,138.574L370.603,137.356L370.295,134.873L368.884,131.618L369.685,130.378L371.798,128.904L374.765,128.214L377.109,125.884L377.585,123.409L378.391,122.868L379.008,121.042L378.421,119.857L381.388,113.478L381.098,112.689L381.821,110.826L382.899,109.595L381.112,109.665L379.742,108.773L379.289,107.918L380.115,106.67L379.512,106.261L378.656,107.199L378.014,107.1L377.995,105.072L376.432,105.195L376.114,104.456L377.48,102.246L378.905,101.288L380.346,101.465L383.672,101.23L385.115,101.713L387.659,101.457L388.467,101.056L389.084,99.709L389.089,98.272L390.387,96.562L392.394,95.789L392.793,94.414L392.183,93.125L392.751,91.77L393.048,89.043L392.526,88.2L393.29,87.754L393.746,88.585L394.328,87.457L393.258,87.064L393.011,86.18L394.254,85.949L396.398,84.796L399.351,85.408L399.936,86.143L401.048,86.048L402.482,86.85L404.068,86.094L407.321,87.668L408.108,88.729L411.554,89.853L414.466,87.758L416.395,88.737L417.622,87.961L419.121,88.357L419.524,86.069L418.785,84.615L420.504,83.099L421.167,81.537L420.937,80.513L421.276,77.699L421.094,76.551L421.556,75.485L423.131,73.915L424.683,71.598L425.076,69.4L426.909,67L427.848,64.604L429.906,61.407L430.373,59.63L432.466,57.263L432.576,55.648L433.955,54.057L434.664,52.595L435.168,49.761L437.965,47.778L438.734,46.828L438.232,46.027L439.282,43.734L441.151,43.73L445.003,41.032L447.019,40.698L449.957,42.846L452.749,43.627L455.939,45.093L458.782,47.572L461.057,49.142L461.563,49.869L462.645,49.873L467.648,47.382L468.184,46.374L470.058,40.342L470.191,38.864L475.329,36.707L477.627,35.906L481.989,35.055L484.927,34.022L487.507,33.543L489.013,32.836L490.403,34.431L491.317,36.174L491.929,38.289L492.631,39.301L496.432,39.372L500.148,38.583L502.401,38.302L505.571,37.318L506.858,35.745L510.235,32.659L511.305,32.085L512.408,30.382L516.37,28.586L517.816,26.594L518.034,25.516L520.044,27.673L521.013,29.519L521.674,29.804L523.09,29.11L525.253,27.231L526.149,25.599L527.332,25.219L529.524,25.661L532.203,24.756L533.172,23.438L532.997,21.476L531.471,20.076L531.137,19.183L532.657,15.573L532.776,14.255L532.318,12.297L532.753,11.289L533.865,10.562L536.322,10L537.532,11.847L538.64,14.775L539.533,15.441L540.401,17.341L540.023,17.708L541.446,19.299L542.618,19.043L543.93,20.431L543.472,23.079L544.487,23.182L544.643,24.26L543.094,28.569L543.532,29.697L544.765,30.564L544.148,32.109L545.599,35.86L547.192,35.86L549.266,36.943L550.336,36.959L552.608,35.629L553.895,37.244L555.408,36.943L557.067,37.562L556.846,39.062L556.025,40.495L553.849,42.924L550.479,44.444L548.154,44.172L546.699,44.498L544.468,45.56L542.459,45.139L541.66,46.126L541.432,47.77L538.472,48.241L536.616,49.224L535.495,49.17L535.465,48.439L534.105,48.101L532.528,49.059L533.647,53.103L534.289,53.987L533.755,56.305L531.243,57.581L529.977,54.421L527.85,53.739L527.532,54.793L527.912,56.449L527.622,57.986L526.524,59.386L524.807,59.68L524.39,61.113L525.313,60.869L526.821,61.46L530.046,62.092L530.481,62.534L530.419,64.34L531.432,67.326L532.514,66.901L533.69,67.739L534.376,67.554L538.159,68.607L540.624,67.454L540.999,68.727L539.768,69.466L539.639,70.359L540.668,71.127L541.943,71.077L544.135,70.445L544.043,71.23L549.897,70.71L550.495,73.044L549.646,74.068L551.029,76.997L550.682,77.997L550.516,82.917L550.571,85.565L551.819,88.176L554.105,88.196L555.221,88.58L556.259,91.551L558.467,90.423L559.1,90.935L558.485,92.538L558.485,93.823L557.385,95.136L557.028,97.041L555.567,97.599L555.274,100.247L553.9,102.291L553.824,105.968L554.367,106.249L553.674,107.72L552.187,108.422L551.469,110.772L552.137,112.466L550.985,113.668L552.067,114.577L554.109,115.288L553.619,117.39L552.958,117.109L552.452,118.373L551.094,118.547L549.512,118.179L548.057,121.121L548.529,122.93L547.44,125.033L545.937,125.462L544.841,124.863L540.928,125.735L539.369,126.834L538.515,126.925L537.258,126.098L535.638,126.801L534.687,126.706L534.054,124.558L532.381,123.888L531.614,120.993L529.264,121.881L528.944,123.393L528.09,123.76L526.89,123.389L525.889,124.302L525.221,125.942L523.509,125.657L522.788,126.747L519.929,129.469L518.67,130.977L517.074,131.167L516.586,133.03L516.989,135.798L517.047,138.074L518.38,140.173L520.198,141.012L521.255,141.937L521.156,143.218L520.249,144.184L520.408,146.741L518.465,146.407L517.27,148.786L517.017,150.042L515.412,150.608L514.544,149.897L513.534,150.827L513.736,153.177L513.117,153.995L511.257,154.313L509.429,153.9L508.382,154.38L507.924,156.412L507.848,158.395L505.686,160.332L505.341,162.861L505.431,164.017L504.864,164.761L506.823,166.595L506.276,167.731L504.411,169.838L503.743,172.213L504.215,173.415L505.433,174.886L504.837,178.294L504.772,179.819L505.91,181.045L506.126,182.053L507.641,182.747L509.086,182.384L510.341,182.57L511.895,184.218L513.626,183.656L513.803,185.003L515.046,185.288L514.098,186.292L514.655,186.717L516.006,186.494L518.142,187.089L519.66,186.664L520.09,188.126L519.503,187.924L518.842,190.481L519.593,190.873L521.213,192.868L521.278,193.624L522.355,194.356L522.466,195.884L522.148,198.714L523.681,199.086L525.553,203.233L526.757,204.365L527.408,206.889L527.337,209.227L527.993,210.648L529.273,210.603L529.917,211.855L531.246,213.024L531.103,214.408L528.962,215.849L528.755,217.919L531.425,216.861L532.528,216.775L533.601,217.63L535.723,218.34L536.331,219.836L535.875,221.686L535.039,223.587L535.458,224.822L532.081,230.548L530.87,231.998L530.421,233.311L530.263,235.534L529.689,236.649L528.672,236.88L527.532,238.083L526.789,241.697L524.738,242.92L523.729,244.3L523.561,246.332L522.917,247.638L522.894,249.022L521.126,250.624L520.249,252.33L520.003,253.793L516.886,254.834L516.577,255.317L516.904,257.825L516.089,259.907L516.653,260.778L517.684,260.96L517.788,262.08L516.817,263.815L518.041,265.265L517.113,267.02L516.276,267.851L517.928,271.92L517.615,273.556L516.842,273.486L515.235,274.812L514.699,274.283L514.68,272.99L513.561,272.411L512.841,272.746L511.745,274.514L512.162,276.559L511.619,277.703L511.994,278.856L510.656,279.149L507.696,281.322L506.064,280.975L504.703,281.888L504.314,282.681L502.36,282.136L501.211,283.074L500.557,284.309L501.202,285.003L502.767,284.499L502.5,286.044L501.177,287.783L501.697,289.105L504.275,289.502L504.795,290.319L504.503,291.823L506.091,292.364L507.07,293.897L506.685,295.326L505.946,295.124L505.548,295.991L505.281,298.387L506.75,299.164L507.021,300.61L509.25,301.027L511.423,302.977L513.449,303.093L514.574,305.844L514.528,308.492L514.936,309.595L514.241,310.9L513.485,311.239L513.865,313.68L513.034,314.358L513.212,315.312L511.8,316.316L512.921,316.857L513.29,317.754L512.282,318.092L512.894,318.989L510.44,319.625L511.904,320.431L512.015,321.038L513.368,321.257L513.734,322.203L512.643,322.777L510.645,322.719L511.614,323.607L512.249,327.255L510.958,328.114L511.423,328.994L512.747,329.172L511.982,329.957L512.788,330.936L512.286,331.82L510.293,331.312L509.655,332.51L510.235,333.084L510.587,336.356L509.683,339.454L510.035,340.437L510.788,340.499L510.937,341.59L509.885,342.556L508.962,341.966L508.021,342.474L506.918,342.342L506.964,343.626L507.963,344.019L506.823,344.403L507.652,345.655L506.998,347.687L507.804,350.145L507.334,351.124L508.49,351.674L509.024,353.673L509.017,355.003L506.561,354.904L505.58,353.148L504.94,353.334L505.401,355.8L504.62,357.341L502.751,359.312L502.316,361.501L502.744,362.538L501.621,362.261L499.169,363.121L497.972,362.559L496.653,363.166L495.539,364.909L494.34,365.674L493.159,365.616L492.438,364.835L491.501,365.744L492.125,366.165L491.644,367.615L492.017,368.367L489.947,367.871L488.073,366.657L485.951,366.929L485.695,369.536L484.862,369.416L484.874,370.999L484.073,371.37L483.769,373.3L482.583,374.535L481.577,373.977L480.329,373.994L479.429,373.147L477.898,372.688L476.941,372.986L475.845,372.577L475.09,374.15L475.421,376.476L474.957,377.455L473.997,377.075L472.477,377.641L472.136,379.43L470.939,380.149L468.923,380.281L466.437,379.351L465.166,380.616L463.522,382.859L461.83,382.45L461.032,382.706L460.626,383.97L460.118,383.024L460.348,382.024L459.036,380.934L457.567,380.252L457.378,379.277L456.727,380.017L456.596,378.955L455.622,379.616L456.623,381.458L455.656,381.822L453.324,381.752L452.945,382.363L451.494,381.636L450.06,381.921L448.803,381.182L447.102,381.413L445.311,380.653L443.548,380.603L442.305,381.814L438.126,381.987L438.969,379.756L437.823,380.397L435.695,380.863L434.314,380.512L434.344,379.665L427.802,377.98L425.939,377.935L427.044,380.372L426.994,381.867L425.051,383.107L425.021,383.788L426.179,385.734L426.386,387.262L425.804,389.712L426.117,392.48L424.885,393.145L423.944,391.687L421.648,391.74L420.863,390.956L419.02,390.778L418.49,391.46L417.519,390.918L416.75,391.559L415.857,391.187L413.186,391.658L412.763,391.992L412.714,393.707L411.22,394.149L410.544,395.099L409.51,395.029L408.992,395.818L407.528,395.859L406.22,396.838L405.293,396.859L405.926,399.185L404.093,400.064L402.744,401.51L402.537,402.903L401.167,403.753L401.038,405.03L400.051,406.232L399.183,405.654L397.77,405.79L396.434,407.096L394.418,407.29L393.078,406.563L390.755,408.062L388.621,407.542L387.823,407.005L385.373,408.533L383.311,407.765L382.493,409.446L381.625,409.71L380.88,408.967L379.201,408.773L378.297,408.087L377.648,408.546L376.041,411.834L373.292,412.156L371.646,412.846L368.513,415.068L367.862,415.072L366.349,413.515L365.514,413.536L364.662,417.497L363.601,419.092L361.98,419.658L360.449,420.914L358.727,418.728L356.462,418.567L354.195,421.678L351.391,421.418L349.132,421.463L345.758,422.992L345.005,423L342.634,421.24L338.35,422.628L335.329,421.509L332.397,421.224L330.995,420.034L329.273,417.394L328.9,415.961L329.62,413.821L329.816,409.748L329.119,406.612L329.39,405.666L328.974,403.811L330.212,401.324L330.629,399.697L331.292,399.507L332.717,396.83L333.741,395.76L333.727,393.599L334.393,393.174L335.099,390.629L336.545,387.395L336.068,387.002L336.048,383.255L336.791,382.421L336.605,379.752L338.152,377.505L340.594,374.824L342.056,369.222L342.498,368.636L343.939,364.711L344.924,362.865L346.826,361.039L347.537,359.498L347.97,356.953L349.045,354.995L348.782,353.338L348.145,352.962L348.14,351.719L347.362,350.467Z" fill="#eee" opacity="0.5"></path><path d="M347.341,348.154L347.171,346.002L346.63,344.833L347.026,343.982L346.568,342.275L345.937,341.536L345.962,339.095L343.865,338.81L344.13,336.058L343.416,334.65L344.068,333.6L344.001,332.522L342.871,331.196L343.228,330.399L342.832,328.655L341.545,326.032L341.676,324.723L340.617,322.248L340.438,320.141L341.096,318.154L340.813,316.242L341.863,314.631L341.842,310.528L341.121,309.384L341.614,306.612L342.556,305.038L342.827,303.105L341.817,301.436L343.426,298.817L343.313,295.653L342.707,294.69L343.076,292.608L341.734,291.716L340.456,290.039L339.125,287.349L337.645,286.354L338.096,285.003L339.003,285.883L339.963,285.751L339.89,284.077L340.689,283.065L340.06,282.363L339.066,283.396L338.824,282.71L339.567,281.351L338.64,280.645L337.33,280.525L338.115,279.992L338.978,278.311L339.155,276.931L338.324,276.551L338.976,275.882L339.241,274.518L338.686,273.845L336.757,273.349L336.669,272.746L338.057,272.461L338.499,271.606L339.227,267.343L338.235,265.5L336.727,264.253L337.049,263.484L338.621,263.654L340.127,264.525L340.61,263.84L339.218,263.344L339.319,262.22L341.149,261.96L343.172,258.965L345.131,257.279L345.382,255.317L347.73,252.917L351.276,247.861L351.835,246.167L353.327,245.828L352.726,243.771L353.534,243.238L353.591,241.656L350.751,240.958L350.125,239.384L351.105,235.744L356.241,234.902L356.95,233.538L357.012,231.378L357.636,230.263L357.627,229.044L358.891,227.185L357.689,225.409L357.233,222.269L358.805,221.517L358.955,220.695L357.855,219.501L355.928,218.927L354.204,217.861L354.04,216.969L354.738,216.296L356.545,215.796L356.81,214.527L355.751,213.499L352.813,212.177L351.773,210.971L351.234,208.822L348.934,205.047L347.912,203.002L345.771,202.081L344.439,201.097L344.208,199.652L344.68,198.863L343.677,197.198L343.32,195.438L343.711,193.893L343.345,191.456L344.369,189.679L343.808,188.142L343.663,185.598L344.515,183.871L346.333,183.871L346.812,183.396L346.851,181.492L347.355,178.013L348.619,177.274L350.61,177.505L352.189,176.902L353.941,174.221L356.524,173.126L356.982,171.032L357.972,168.293L358.992,167.442L360.488,167.715L361.319,168.355L363.099,167.425L362.928,163.596L364.871,162.856L364.966,160.002L365.521,158.721L364.287,158.3L363.446,155.677L364.275,153.578L365.325,152.479L365.281,150.422L366.867,148.708L367.915,146.923L367.452,145.494L368.663,144.746L369.584,142.201L370.306,141.078L369.558,139.277L370.424,138.574L370.603,137.356L370.295,134.873L368.884,131.618L369.685,130.378L371.798,128.904L374.765,128.214L377.109,125.884L377.585,123.409L378.391,122.868L379.008,121.042L378.421,119.857L381.388,113.478L381.098,112.689L381.821,110.826L382.899,109.595L381.112,109.665L379.742,108.773L379.289,107.918L380.115,106.67L379.512,106.261L378.656,107.199L378.014,107.1L377.995,105.072L376.432,105.195L376.114,104.456L377.48,102.246L378.905,101.288L380.346,101.465L383.672,101.23L385.115,101.713L387.659,101.457L388.467,101.056L389.084,99.709L389.089,98.272L390.387,96.562L392.394,95.789L392.793,94.414L392.183,93.125L392.751,91.77L393.048,89.043L392.526,88.2L393.29,87.754L393.746,88.585L394.328,87.457L393.258,87.064L393.011,86.18L394.254,85.949L396.398,84.796L399.351,85.408L399.936,86.143L401.048,86.048L402.482,86.85L404.068,86.094L407.321,87.668L408.108,88.729L411.554,89.853L414.466,87.758L416.395,88.737L417.622,87.961L419.121,88.357L419.524,86.069L418.785,84.615L420.504,83.099L421.167,81.537L420.937,80.513L421.276,77.699L421.094,76.551L421.556,75.485L423.131,73.915L424.683,71.598L425.076,69.4L426.909,67L427.848,64.604L429.906,61.407L430.373,59.63L432.466,57.263L432.576,55.648L433.955,54.057L434.664,52.595L435.168,49.761L437.965,47.778L438.734,46.828L438.232,46.027L439.282,43.734L441.151,43.73L445.003,41.032L447.019,40.698L449.957,42.846L452.749,43.627L455.939,45.093L458.782,47.572L461.057,49.142L461.563,49.869L462.645,49.873L467.648,47.382L468.184,46.374L470.058,40.342L470.191,38.864L475.329,36.707L477.627,35.906L481.989,35.055L484.927,34.022L487.507,33.543L489.013,32.836L490.403,34.431L491.317,36.174L491.929,38.289L492.631,39.301L496.432,39.372L500.148,38.583L502.401,38.302L505.571,37.318L506.858,35.745L510.235,32.659L511.305,32.085L512.408,30.382L516.37,28.586L517.816,26.594L518.034,25.516L520.044,27.673L521.013,29.519L521.674,29.804L523.09,29.11L525.253,27.231L526.149,25.599L527.332,25.219L529.524,25.661L532.203,24.756L533.172,23.438L532.997,21.476L531.471,20.076L531.137,19.183L532.657,15.573L532.776,14.255L532.318,12.297L532.753,11.289L533.865,10.562L536.322,10L537.532,11.847L538.64,14.775L539.533,15.441L540.401,17.341L540.023,17.708L541.446,19.299L542.618,19.043L543.93,20.431L543.472,23.079L544.487,23.182L544.643,24.26L543.094,28.569L543.532,29.697L544.765,30.564L544.148,32.109L545.599,35.86L547.192,35.86L549.266,36.943L550.336,36.959L552.608,35.629L553.895,37.244L555.408,36.943L557.067,37.562L556.846,39.062L556.025,40.495L553.849,42.924L550.479,44.444L548.154,44.172L546.699,44.498L544.468,45.56L542.459,45.139L541.66,46.126L541.432,47.77L538.472,48.241L536.616,49.224L535.495,49.17L535.465,48.439L534.105,48.101L532.528,49.059L533.647,53.103L534.289,53.987L533.755,56.305L531.243,57.581L529.977,54.421L527.85,53.739L527.532,54.793L527.912,56.449L527.622,57.986L526.524,59.386L524.807,59.68L524.39,61.113L525.313,60.869L526.821,61.46L530.046,62.092L530.481,62.534L530.419,64.34L531.432,67.326L532.514,66.901L533.69,67.739L534.376,67.554L538.159,68.607L540.624,67.454L540.999,68.727L539.768,69.466L539.639,70.359L540.668,71.127L541.943,71.077L544.135,70.445L544.043,71.23L549.897,70.71L550.495,73.044L549.646,74.068L551.029,76.997L550.682,77.997L550.516,82.917L550.571,85.565L551.819,88.176L554.105,88.196L555.221,88.58L556.259,91.551L558.467,90.423L559.1,90.935L558.485,92.538L558.485,93.823L557.385,95.136L557.028,97.041L555.567,97.599L555.274,100.247L553.9,102.291L553.824,105.968L554.367,106.249L553.674,107.72L552.187,108.422L551.469,110.772L552.137,112.466L550.985,113.668L552.067,114.577L554.109,115.288L553.619,117.39L552.958,117.109L552.452,118.373L551.094,118.547L549.512,118.179L548.057,121.121L548.529,122.93L547.44,125.033L545.937,125.462L544.841,124.863L540.928,125.735L539.369,126.834L538.515,126.925L537.258,126.098L535.638,126.801L534.687,126.706L534.054,124.558L532.381,123.888L531.614,120.993L529.264,121.881L528.944,123.393L528.09,123.76L526.89,123.389L525.889,124.302L525.221,125.942L523.509,125.657L522.788,126.747L519.929,129.469L518.67,130.977L517.074,131.167L516.586,133.03L516.989,135.798L517.047,138.074L518.38,140.173L520.198,141.012L521.255,141.937L521.156,143.218L520.249,144.184L520.408,146.741L518.465,146.407L517.27,148.786L517.017,150.042L515.412,150.608L514.544,149.897L513.534,150.827L513.736,153.177L513.117,153.995L511.257,154.313L509.429,153.9L508.382,154.38L507.924,156.412L507.848,158.395L505.686,160.332L505.341,162.861L505.431,164.017L504.864,164.761L506.823,166.595L506.276,167.731L504.411,169.838L503.743,172.213L504.215,173.415L505.433,174.886L504.837,178.294L504.772,179.819L505.91,181.045L506.126,182.053L507.641,182.747L509.086,182.384L510.341,182.57L511.895,184.218L513.626,183.656L513.803,185.003L515.046,185.288L514.098,186.292L514.655,186.717L516.006,186.494L518.142,187.089L519.66,186.664L520.09,188.126L519.503,187.924L518.842,190.481L519.593,190.873L521.213,192.868L521.278,193.624L522.355,194.356L522.466,195.884L522.148,198.714L523.681,199.086L525.553,203.233L526.757,204.365L527.408,206.889L527.337,209.227L527.993,210.648L529.273,210.603L529.917,211.855L531.246,213.024L531.103,214.408L528.962,215.849L528.755,217.919L531.425,216.861L532.528,216.775L533.601,217.63L535.723,218.34L536.331,219.836L535.875,221.686L535.039,223.587L535.458,224.822L532.081,230.548L530.87,231.998L530.421,233.311L530.263,235.534L529.689,236.649L528.672,236.88L527.532,238.083L526.789,241.697L524.738,242.92L523.729,244.3L523.561,246.332L522.917,247.638L522.894,249.022L521.126,250.624L520.249,252.33L520.003,253.793L516.886,254.834L516.577,255.317L516.904,257.825L516.089,259.907L516.653,260.778L517.684,260.96L517.788,262.08L516.817,263.815L518.041,265.265L517.113,267.02L516.276,267.851L517.928,271.92L517.615,273.556L516.842,273.486L515.235,274.812L514.699,274.283L514.68,272.99L513.561,272.411L512.841,272.746L511.745,274.514L512.162,276.559L511.619,277.703L511.994,278.856L510.656,279.149L507.696,281.322L506.064,280.975L504.703,281.888L504.314,282.681L502.36,282.136L501.211,283.074L500.557,284.309L501.202,285.003L502.767,284.499L502.5,286.044L501.177,287.783L501.697,289.105L504.275,289.502L504.795,290.319L504.503,291.823L506.091,292.364L507.07,293.897L506.685,295.326L505.946,295.124L505.548,295.991L505.281,298.387L506.75,299.164L507.021,300.61L509.25,301.027L511.423,302.977L513.449,303.093L514.574,305.844L514.528,308.492L514.936,309.595L514.241,310.9L513.485,311.239L513.865,313.68L513.034,314.358L513.212,315.312L511.8,316.316L512.921,316.857L513.29,317.754L512.282,318.092L512.894,318.989L510.44,319.625L511.904,320.431L512.015,321.038L513.368,321.257L513.734,322.203L512.643,322.777L510.645,322.719L511.614,323.607L512.249,327.255L510.958,328.114L511.423,328.994L512.747,329.172L511.982,329.957L512.788,330.936L512.286,331.82L510.293,331.312L509.655,332.51L510.235,333.084L510.587,336.356L509.683,339.454L510.035,340.437L510.788,340.499L510.937,341.59L509.885,342.556L508.962,341.966L508.021,342.474L506.918,342.342L506.964,343.626L507.963,344.019L506.823,344.403L507.652,345.655L506.998,347.687L507.804,350.145L507.334,351.124L508.49,351.674L509.024,353.673L509.017,355.003L506.561,354.904L505.58,353.148L504.94,353.334L505.401,355.8L504.62,357.341L502.751,359.312L502.316,361.501L502.744,362.538L501.621,362.261L499.169,363.121L497.972,362.559L496.653,363.166L495.539,364.909L494.34,365.674L493.159,365.616L492.438,364.835L491.501,365.744L492.125,366.165L491.644,367.615L492.017,368.367L489.947,367.871L488.073,366.657L485.951,366.929L485.695,369.536L484.862,369.416L484.874,370.999L484.073,371.37L483.769,373.3L482.583,374.535L481.577,373.977L480.329,373.994L479.429,373.147L477.898,372.688L476.941,372.986L475.845,372.577L475.09,374.15L475.421,376.476L474.957,377.455L473.997,377.075L472.477,377.641L472.136,379.43L470.939,380.149L468.923,380.281L466.437,379.351L465.166,380.616L463.522,382.859L461.83,382.45L461.032,382.706L460.626,383.97L460.118,383.024L460.348,382.024L459.036,380.934L457.567,380.252L457.378,379.277L456.727,380.017L456.596,378.955L455.622,379.616L456.623,381.458L455.656,381.822L453.324,381.752L452.945,382.363L451.494,381.636L450.06,381.921L448.803,381.182L447.102,381.413L445.311,380.653L443.548,380.603L442.305,381.814L438.126,381.987L438.969,379.756L437.823,380.397L435.695,380.863L434.314,380.512L434.344,379.665L427.802,377.98L425.939,377.935L427.044,380.372L426.994,381.867L425.051,383.107L425.021,383.788L426.179,385.734L426.386,387.262L425.804,389.712L426.117,392.48L424.885,393.145L423.944,391.687L421.648,391.74L420.863,390.956L419.02,390.778L418.49,391.46L417.519,390.918L416.75,391.559L415.857,391.187L413.186,391.658L412.763,391.992L412.714,393.707L411.22,394.149L410.544,395.099L409.51,395.029L408.992,395.818L407.528,395.859L406.22,396.838L405.293,396.859L405.926,399.185L404.093,400.064L402.744,401.51L402.537,402.903L401.167,403.753L401.038,405.03L400.051,406.232L399.183,405.654L397.77,405.79L396.434,407.096L394.418,407.29L393.078,406.563L390.755,408.062L388.621,407.542L387.823,407.005L385.373,408.533L383.311,407.765L382.493,409.446L381.625,409.71L380.88,408.967L379.201,408.773L378.297,408.087L377.648,408.546L376.041,411.834L373.292,412.156L371.646,412.846L368.513,415.068L367.862,415.072L366.349,413.515L365.514,413.536L364.662,417.497L363.601,419.092L361.98,419.658L360.449,420.914L358.727,418.728L356.462,418.567L354.195,421.678L351.391,421.418L349.132,421.463L345.758,422.992L345.005,423L342.634,421.24L338.35,422.628L335.329,421.509L332.397,421.224L330.995,420.034L329.273,417.394L328.9,415.961L329.62,413.821L329.816,409.748L329.119,406.612L329.39,405.666L328.974,403.811L330.212,401.324L330.629,399.697L331.292,399.507L332.717,396.83L333.741,395.76L333.727,393.599L334.393,393.174L335.099,390.629L336.545,387.395L336.068,387.002L336.048,383.255L336.791,382.421L336.605,379.752L338.152,377.505L340.594,374.824L342.056,369.222L342.498,368.636L343.939,364.711L344.924,362.865L346.826,361.039L347.537,359.498L347.97,356.953L349.045,354.995L348.782,353.338L348.145,352.962L348.14,351.719L347.362,350.467Z" stroke="#747569" stroke-width="1" stroke-dasharray="3,3" fill="none"></path><path d="M347.341,348.154L347.171,346.002L346.63,344.833L347.026,343.982L346.568,342.275L345.937,341.536L345.962,339.095L343.865,338.81L344.13,336.058L343.416,334.65L344.068,333.6L344.001,332.522L342.871,331.196L343.228,330.399L342.832,328.655L341.545,326.032L341.676,324.723L340.617,322.248L340.438,320.141L341.096,318.154L340.813,316.242L341.863,314.631L341.842,310.528L341.121,309.384L341.614,306.612L342.556,305.038L342.827,303.105L341.817,301.436L343.426,298.817L343.313,295.653L342.707,294.69L343.076,292.608L341.734,291.716L340.456,290.039L339.125,287.349L337.645,286.354L338.096,285.003L339.003,285.883L339.963,285.751L339.89,284.077L340.689,283.065L340.06,282.363L339.066,283.396L338.824,282.71L339.567,281.351L338.64,280.645L337.33,280.525L338.115,279.992L338.978,278.311L339.155,276.931L338.324,276.551L338.976,275.882L339.241,274.518L338.686,273.845L336.757,273.349L336.669,272.746L338.057,272.461L338.499,271.606L339.227,267.343L338.235,265.5L336.727,264.253L337.049,263.484L338.621,263.654L340.127,264.525L340.61,263.84L339.218,263.344L339.319,262.22L341.149,261.96L343.172,258.965L345.131,257.279L345.382,255.317L347.73,252.917L351.276,247.861L351.835,246.167L353.327,245.828L352.726,243.771L353.534,243.238L353.591,241.656L350.751,240.958L350.125,239.384L351.105,235.744L356.241,234.902L356.95,233.538L357.012,231.378L357.636,230.263L357.627,229.044L358.891,227.185L357.689,225.409L357.233,222.269L358.805,221.517L358.955,220.695L357.855,219.501L355.928,218.927L354.204,217.861L354.04,216.969L354.738,216.296L356.545,215.796L356.81,214.527L355.751,213.499L352.813,212.177L351.773,210.971L351.234,208.822L348.934,205.047L347.912,203.002L345.771,202.081L344.439,201.097L344.208,199.652L344.68,198.863L343.677,197.198L343.32,195.438L343.711,193.893L343.345,191.456L344.369,189.679L343.808,188.142L343.663,185.598L344.515,183.871L346.333,183.871L346.812,183.396L346.851,181.492L347.355,178.013L348.619,177.274L350.61,177.505L352.189,176.902L353.941,174.221L356.524,173.126L356.982,171.032L357.972,168.293L358.992,167.442L360.488,167.715L361.319,168.355L363.099,167.425L362.928,163.596L364.871,162.856L364.966,160.002L365.521,158.721L364.287,158.3L363.446,155.677L364.275,153.578L365.325,152.479L365.281,150.422L366.867,148.708L367.915,146.923L367.452,145.494L368.663,144.746L369.584,142.201L370.306,141.078L369.558,139.277L370.424,138.574L370.603,137.356L370.295,134.873L368.884,131.618L369.685,130.378L371.798,128.904L374.765,128.214L377.109,125.884L377.585,123.409L378.391,122.868L379.008,121.042L378.421,119.857L381.388,113.478L381.098,112.689L381.821,110.826L382.899,109.595L381.112,109.665L379.742,108.773L379.289,107.918L380.115,106.67L379.512,106.261L378.656,107.199L378.014,107.1L377.995,105.072L376.432,105.195L376.114,104.456L377.48,102.246L378.905,101.288L380.346,101.465L383.672,101.23L385.115,101.713L387.659,101.457L388.467,101.056L389.084,99.709L389.089,98.272L390.387,96.562L392.394,95.789L392.793,94.414L392.183,93.125L392.751,91.77L393.048,89.043L392.526,88.2L393.29,87.754L393.746,88.585L394.328,87.457L393.258,87.064L393.011,86.18L394.254,85.949L396.398,84.796L399.351,85.408L399.936,86.143L401.048,86.048L402.482,86.85L404.068,86.094L407.321,87.668L408.108,88.729L411.554,89.853L414.466,87.758L416.395,88.737L417.622,87.961L419.121,88.357L419.524,86.069L418.785,84.615L420.504,83.099L421.167,81.537L420.937,80.513L421.276,77.699L421.094,76.551L421.556,75.485L423.131,73.915L424.683,71.598L425.076,69.4L426.909,67L427.848,64.604L429.906,61.407L430.373,59.63L432.466,57.263L432.576,55.648L433.955,54.057L434.664,52.595L435.168,49.761L437.965,47.778L438.734,46.828L438.232,46.027L439.282,43.734L441.151,43.73L445.003,41.032L447.019,40.698L449.957,42.846L452.749,43.627L455.939,45.093L458.782,47.572L461.057,49.142L461.563,49.869L462.645,49.873L467.648,47.382L468.184,46.374L470.058,40.342L470.191,38.864L475.329,36.707L477.627,35.906L481.989,35.055L484.927,34.022L487.507,33.543L489.013,32.836L490.403,34.431L491.317,36.174L491.929,38.289L492.631,39.301L496.432,39.372L500.148,38.583L502.401,38.302L505.571,37.318L506.858,35.745L510.235,32.659L511.305,32.085L512.408,30.382L516.37,28.586L517.816,26.594L518.034,25.516L520.044,27.673L521.013,29.519L521.674,29.804L523.09,29.11L525.253,27.231L526.149,25.599L527.332,25.219L529.524,25.661L532.203,24.756L533.172,23.438L532.997,21.476L531.471,20.076L531.137,19.183L532.657,15.573L532.776,14.255L532.318,12.297L532.753,11.289L533.865,10.562L536.322,10L537.532,11.847L538.64,14.775L539.533,15.441L540.401,17.341L540.023,17.708L541.446,19.299L542.618,19.043L543.93,20.431L543.472,23.079L544.487,23.182L544.643,24.26L543.094,28.569L543.532,29.697L544.765,30.564L544.148,32.109L545.599,35.86L547.192,35.86L549.266,36.943L550.336,36.959L552.608,35.629L553.895,37.244L555.408,36.943L557.067,37.562L556.846,39.062L556.025,40.495L553.849,42.924L550.479,44.444L548.154,44.172L546.699,44.498L544.468,45.56L542.459,45.139L541.66,46.126L541.432,47.77L538.472,48.241L536.616,49.224L535.495,49.17L535.465,48.439L534.105,48.101L532.528,49.059L533.647,53.103L534.289,53.987L533.755,56.305L531.243,57.581L529.977,54.421L527.85,53.739L527.532,54.793L527.912,56.449L527.622,57.986L526.524,59.386L524.807,59.68L524.39,61.113L525.313,60.869L526.821,61.46L530.046,62.092L530.481,62.534L530.419,64.34L531.432,67.326L532.514,66.901L533.69,67.739L534.376,67.554L538.159,68.607L540.624,67.454L540.999,68.727L539.768,69.466L539.639,70.359L540.668,71.127L541.943,71.077L544.135,70.445L544.043,71.23L549.897,70.71L550.495,73.044L549.646,74.068L551.029,76.997L550.682,77.997L550.516,82.917L550.571,85.565L551.819,88.176L554.105,88.196L555.221,88.58L556.259,91.551L558.467,90.423L559.1,90.935L558.485,92.538L558.485,93.823L557.385,95.136L557.028,97.041L555.567,97.599L555.274,100.247L553.9,102.291L553.824,105.968L554.367,106.249L553.674,107.72L552.187,108.422L551.469,110.772L552.137,112.466L550.985,113.668L552.067,114.577L554.109,115.288L553.619,117.39L552.958,117.109L552.452,118.373L551.094,118.547L549.512,118.179L548.057,121.121L548.529,122.93L547.44,125.033L545.937,125.462L544.841,124.863L540.928,125.735L539.369,126.834L538.515,126.925L537.258,126.098L535.638,126.801L534.687,126.706L534.054,124.558L532.381,123.888L531.614,120.993L529.264,121.881L528.944,123.393L528.09,123.76L526.89,123.389L525.889,124.302L525.221,125.942L523.509,125.657L522.788,126.747L519.929,129.469L518.67,130.977L517.074,131.167L516.586,133.03L516.989,135.798L517.047,138.074L518.38,140.173L520.198,141.012L521.255,141.937L521.156,143.218L520.249,144.184L520.408,146.741L518.465,146.407L517.27,148.786L517.017,150.042L515.412,150.608L514.544,149.897L513.534,150.827L513.736,153.177L513.117,153.995L511.257,154.313L509.429,153.9L508.382,154.38L507.924,156.412L507.848,158.395L505.686,160.332L505.341,162.861L505.431,164.017L504.864,164.761L506.823,166.595L506.276,167.731L504.411,169.838L503.743,172.213L504.215,173.415L505.433,174.886L504.837,178.294L504.772,179.819L505.91,181.045L506.126,182.053L507.641,182.747L509.086,182.384L510.341,182.57L511.895,184.218L513.626,183.656L513.803,185.003L515.046,185.288L514.098,186.292L514.655,186.717L516.006,186.494L518.142,187.089L519.66,186.664L520.09,188.126L519.503,187.924L518.842,190.481L519.593,190.873L521.213,192.868L521.278,193.624L522.355,194.356L522.466,195.884L522.148,198.714L523.681,199.086L525.553,203.233L526.757,204.365L527.408,206.889L527.337,209.227L527.993,210.648L529.273,210.603L529.917,211.855L531.246,213.024L531.103,214.408L528.962,215.849L528.755,217.919L531.425,216.861L532.528,216.775L533.601,217.63L535.723,218.34L536.331,219.836L535.875,221.686L535.039,223.587L535.458,224.822L532.081,230.548L530.87,231.998L530.421,233.311L530.263,235.534L529.689,236.649L528.672,236.88L527.532,238.083L526.789,241.697L524.738,242.92L523.729,244.3L523.561,246.332L522.917,247.638L522.894,249.022L521.126,250.624L520.249,252.33L520.003,253.793L516.886,254.834L516.577,255.317L516.904,257.825L516.089,259.907L516.653,260.778L517.684,260.96L517.788,262.08L516.817,263.815L518.041,265.265L517.113,267.02L516.276,267.851L517.928,271.92L517.615,273.556L516.842,273.486L515.235,274.812L514.699,274.283L514.68,272.99L513.561,272.411L512.841,272.746L511.745,274.514L512.162,276.559L511.619,277.703L511.994,278.856L510.656,279.149L507.696,281.322L506.064,280.975L504.703,281.888L504.314,282.681L502.36,282.136L501.211,283.074L500.557,284.309L501.202,285.003L502.767,284.499L502.5,286.044L501.177,287.783L501.697,289.105L504.275,289.502L504.795,290.319L504.503,291.823L506.091,292.364L507.07,293.897L506.685,295.326L505.946,295.124L505.548,295.991L505.281,298.387L506.75,299.164L507.021,300.61L509.25,301.027L511.423,302.977L513.449,303.093L514.574,305.844L514.528,308.492L514.936,309.595L514.241,310.9L513.485,311.239L513.865,313.68L513.034,314.358L513.212,315.312L511.8,316.316L512.921,316.857L513.29,317.754L512.282,318.092L512.894,318.989L510.44,319.625L511.904,320.431L512.015,321.038L513.368,321.257L513.734,322.203L512.643,322.777L510.645,322.719L511.614,323.607L512.249,327.255L510.958,328.114L511.423,328.994L512.747,329.172L511.982,329.957L512.788,330.936L512.286,331.82L510.293,331.312L509.655,332.51L510.235,333.084L510.587,336.356L509.683,339.454L510.035,340.437L510.788,340.499L510.937,341.59L509.885,342.556L508.962,341.966L508.021,342.474L506.918,342.342L506.964,343.626L507.963,344.019L506.823,344.403L507.652,345.655L506.998,347.687L507.804,350.145L507.334,351.124L508.49,351.674L509.024,353.673L509.017,355.003L506.561,354.904L505.58,353.148L504.94,353.334L505.401,355.8L504.62,357.341L502.751,359.312L502.316,361.501L502.744,362.538L501.621,362.261L499.169,363.121L497.972,362.559L496.653,363.166L495.539,364.909L494.34,365.674L493.159,365.616L492.438,364.835L491.501,365.744L492.125,366.165L491.644,367.615L492.017,368.367L489.947,367.871L488.073,366.657L485.951,366.929L485.695,369.536L484.862,369.416L484.874,370.999L484.073,371.37L483.769,373.3L482.583,374.535L481.577,373.977L480.329,373.994L479.429,373.147L477.898,372.688L476.941,372.986L475.845,372.577L475.09,374.15L475.421,376.476L474.957,377.455L473.997,377.075L472.477,377.641L472.136,379.43L470.939,380.149L468.923,380.281L466.437,379.351L465.166,380.616L463.522,382.859L461.83,382.45L461.032,382.706L460.626,383.97L460.118,383.024L460.348,382.024L459.036,380.934L457.567,380.252L457.378,379.277L456.727,380.017L456.596,378.955L455.622,379.616L456.623,381.458L455.656,381.822L453.324,381.752L452.945,382.363L451.494,381.636L450.06,381.921L448.803,381.182L447.102,381.413L445.311,380.653L443.548,380.603L442.305,381.814L438.126,381.987L438.969,379.756L437.823,380.397L435.695,380.863L434.314,380.512L434.344,379.665L427.802,377.98L425.939,377.935L427.044,380.372L426.994,381.867L425.051,383.107L425.021,383.788L426.179,385.734L426.386,387.262L425.804,389.712L426.117,392.48L424.885,393.145L423.944,391.687L421.648,391.74L420.863,390.956L419.02,390.778L418.49,391.46L417.519,390.918L416.75,391.559L415.857,391.187L413.186,391.658L412.763,391.992L412.714,393.707L411.22,394.149L410.544,395.099L409.51,395.029L408.992,395.818L407.528,395.859L406.22,396.838L405.293,396.859L405.926,399.185L404.093,400.064L402.744,401.51L402.537,402.903L401.167,403.753L401.038,405.03L400.051,406.232L399.183,405.654L397.77,405.79L396.434,407.096L394.418,407.29L393.078,406.563L390.755,408.062L388.621,407.542L387.823,407.005L385.373,408.533L383.311,407.765L382.493,409.446L381.625,409.71L380.88,408.967L379.201,408.773L378.297,408.087L377.648,408.546L376.041,411.834L373.292,412.156L371.646,412.846L368.513,415.068L367.862,415.072L366.349,413.515L365.514,413.536L364.662,417.497L363.601,419.092L361.98,419.658L360.449,420.914L358.727,418.728L356.462,418.567L354.195,421.678L351.391,421.418L349.132,421.463L345.758,422.992L345.005,423L342.634,421.24L338.35,422.628L335.329,421.509L332.397,421.224L330.995,420.034L329.273,417.394L328.9,415.961L329.62,413.821L329.816,409.748L329.119,406.612L329.39,405.666L328.974,403.811L330.212,401.324L330.629,399.697L331.292,399.507L332.717,396.83L333.741,395.76L333.727,393.599L334.393,393.174L335.099,390.629L336.545,387.395L336.068,387.002L336.048,383.255L336.791,382.421L336.605,379.752L338.152,377.505L340.594,374.824L342.056,369.222L342.498,368.636L343.939,364.711L344.924,362.865L346.826,361.039L347.537,359.498L347.97,356.953L349.045,354.995L348.782,353.338L348.145,352.962L348.14,351.719L347.362,350.467Z" stroke="#333" stroke-width="2" stroke-dasharray="none" fill="none"></path></g></svg>